<mxfile host="Electron" modified="2024-05-23T02:47:45.587Z" agent="Mozilla/5.0 (Windows NT 10.0; Win64; x64) AppleWebKit/537.36 (KHTML, like Gecko) draw.io/23.1.5 Chrome/120.0.6099.109 Electron/28.1.0 Safari/537.36" etag="S98td1724bHEeXehjW4L" version="23.1.5" type="device">
  <diagram name="Strona-1" id="I7DZua1e1ifhqDZcmrwz">
    <mxGraphModel dx="917" dy="785" grid="1" gridSize="10" guides="1" tooltips="1" connect="1" arrows="1" fold="1" page="1" pageScale="1" pageWidth="583" pageHeight="413" math="0" shadow="0">
      <root>
        <mxCell id="0" />
        <mxCell id="1" parent="0" />
        <mxCell id="tonet2kMceCvSD0oCQCj-22" value="Streams (Avalon Stream)" style="edgeStyle=orthogonalEdgeStyle;rounded=0;orthogonalLoop=1;jettySize=auto;html=1;entryX=0;entryY=0.75;entryDx=0;entryDy=0;shape=flexArrow;fillColor=default;startArrow=block;" parent="1" source="tonet2kMceCvSD0oCQCj-2" target="tonet2kMceCvSD0oCQCj-4" edge="1">
          <mxGeometry x="-0.1003" y="-20" relative="1" as="geometry">
            <mxPoint as="offset" />
            <Array as="points">
              <mxPoint x="160" y="317" />
            </Array>
          </mxGeometry>
        </mxCell>
        <mxCell id="tonet2kMceCvSD0oCQCj-2" value="Komponent ładujący dane&lt;br&gt;z modelu" style="rounded=0;whiteSpace=wrap;html=1;fillColor=#6d8764;fontColor=#ffffff;strokeColor=#3A5431;" parent="1" vertex="1">
          <mxGeometry x="69.87" y="300" width="90" height="80" as="geometry" />
        </mxCell>
        <mxCell id="tonet2kMceCvSD0oCQCj-3" value="" style="rounded=0;whiteSpace=wrap;html=1;" parent="1" vertex="1">
          <mxGeometry x="100" y="166.75" width="470" height="20" as="geometry" />
        </mxCell>
        <mxCell id="tonet2kMceCvSD0oCQCj-4" value="&lt;br&gt;&lt;br&gt;&lt;br&gt;&lt;br&gt;&lt;br&gt;&lt;br&gt;&lt;br&gt;&lt;br&gt;AI Compare" style="rounded=0;whiteSpace=wrap;html=1;" parent="1" vertex="1">
          <mxGeometry x="470" y="219.25" width="98" height="130.75" as="geometry" />
        </mxCell>
        <mxCell id="tonet2kMceCvSD0oCQCj-5" value="Źródło danych wejściowych" style="rounded=0;whiteSpace=wrap;html=1;fillColor=#6d8764;fontColor=#ffffff;strokeColor=#3A5431;" parent="1" vertex="1">
          <mxGeometry x="464" y="46.5" width="110" height="93.5" as="geometry" />
        </mxCell>
        <mxCell id="35LEq4aCd4Z8V4UaqVQG-8" value="irq" style="edgeStyle=orthogonalEdgeStyle;rounded=0;orthogonalLoop=1;jettySize=auto;html=1;exitX=0;exitY=0.25;exitDx=0;exitDy=0;entryX=0.25;entryY=0;entryDx=0;entryDy=0;" parent="1" source="tonet2kMceCvSD0oCQCj-6" target="tonet2kMceCvSD0oCQCj-1" edge="1">
          <mxGeometry x="-0.362" y="-12" relative="1" as="geometry">
            <mxPoint as="offset" />
          </mxGeometry>
        </mxCell>
        <mxCell id="tonet2kMceCvSD0oCQCj-6" value="Signal Processor&lt;div&gt;&lt;br&gt;&lt;/div&gt;&lt;div&gt;&lt;br&gt;&lt;/div&gt;&lt;div&gt;&lt;br&gt;&lt;/div&gt;&lt;div&gt;&lt;br&gt;&lt;/div&gt;&lt;div&gt;&lt;br&gt;&lt;/div&gt;&lt;div&gt;&lt;br&gt;&lt;/div&gt;&lt;div&gt;&lt;br&gt;&lt;/div&gt;" style="rounded=0;whiteSpace=wrap;html=1;" parent="1" vertex="1">
          <mxGeometry x="122.5" y="20.14" width="165" height="119.86" as="geometry" />
        </mxCell>
        <mxCell id="tonet2kMceCvSD0oCQCj-8" value="DMA" style="rounded=0;whiteSpace=wrap;html=1;" parent="1" vertex="1">
          <mxGeometry x="230" y="120" width="50" height="20" as="geometry" />
        </mxCell>
        <mxCell id="tonet2kMceCvSD0oCQCj-10" value="AI RAM" style="rounded=0;whiteSpace=wrap;html=1;" parent="1" vertex="1">
          <mxGeometry x="320" y="218.25" width="90" height="57.75" as="geometry" />
        </mxCell>
        <mxCell id="tonet2kMceCvSD0oCQCj-11" value="&lt;br&gt;&lt;br&gt;AI DMA&amp;nbsp; &amp;nbsp; &amp;nbsp;" style="rounded=0;whiteSpace=wrap;html=1;" parent="1" vertex="1">
          <mxGeometry x="180" y="219.25" width="112" height="57.75" as="geometry" />
        </mxCell>
        <mxCell id="35LEq4aCd4Z8V4UaqVQG-35" style="edgeStyle=orthogonalEdgeStyle;rounded=0;orthogonalLoop=1;jettySize=auto;html=1;exitX=0.25;exitY=0;exitDx=0;exitDy=0;entryX=0.5;entryY=1;entryDx=0;entryDy=0;" parent="1" source="tonet2kMceCvSD0oCQCj-12" target="35LEq4aCd4Z8V4UaqVQG-23" edge="1">
          <mxGeometry relative="1" as="geometry">
            <Array as="points">
              <mxPoint x="139" y="100" />
              <mxPoint x="139" y="68" />
            </Array>
          </mxGeometry>
        </mxCell>
        <mxCell id="tonet2kMceCvSD0oCQCj-12" value="DMA" style="rounded=0;whiteSpace=wrap;html=1;" parent="1" vertex="1">
          <mxGeometry x="127" y="119.86" width="50" height="20" as="geometry" />
        </mxCell>
        <mxCell id="tonet2kMceCvSD0oCQCj-19" style="edgeStyle=orthogonalEdgeStyle;rounded=0;orthogonalLoop=1;jettySize=auto;html=1;exitX=0.5;exitY=1;exitDx=0;exitDy=0;entryX=0;entryY=0.75;entryDx=0;entryDy=0;shape=flexArrow;" parent="1" source="tonet2kMceCvSD0oCQCj-7" target="tonet2kMceCvSD0oCQCj-10" edge="1">
          <mxGeometry relative="1" as="geometry" />
        </mxCell>
        <mxCell id="tonet2kMceCvSD0oCQCj-7" value="DMA" style="rounded=0;whiteSpace=wrap;html=1;" parent="1" vertex="1">
          <mxGeometry x="240" y="219.25" width="42" height="20" as="geometry" />
        </mxCell>
        <mxCell id="tonet2kMceCvSD0oCQCj-13" value="regs" style="rounded=0;whiteSpace=wrap;html=1;" parent="1" vertex="1">
          <mxGeometry x="190" y="219.25" width="50" height="20" as="geometry" />
        </mxCell>
        <mxCell id="tonet2kMceCvSD0oCQCj-15" value="regs" style="rounded=0;whiteSpace=wrap;html=1;" parent="1" vertex="1">
          <mxGeometry x="494" y="120" width="50" height="20" as="geometry" />
        </mxCell>
        <mxCell id="tonet2kMceCvSD0oCQCj-16" value="regs" style="rounded=0;whiteSpace=wrap;html=1;" parent="1" vertex="1">
          <mxGeometry x="514" y="218.25" width="50" height="20" as="geometry" />
        </mxCell>
        <mxCell id="tonet2kMceCvSD0oCQCj-17" value="regs" style="rounded=0;whiteSpace=wrap;html=1;" parent="1" vertex="1">
          <mxGeometry x="180" y="120" width="50" height="20" as="geometry" />
        </mxCell>
        <mxCell id="tonet2kMceCvSD0oCQCj-20" value="IDMA" style="rounded=0;whiteSpace=wrap;html=1;" parent="1" vertex="1">
          <mxGeometry x="470" y="239.25" width="36" height="37.75" as="geometry" />
        </mxCell>
        <mxCell id="tonet2kMceCvSD0oCQCj-25" value="" style="endArrow=classic;html=1;rounded=0;entryX=0.5;entryY=0;entryDx=0;entryDy=0;exitX=0.243;exitY=0.939;exitDx=0;exitDy=0;exitPerimeter=0;strokeWidth=5;" parent="1" edge="1">
          <mxGeometry width="50" height="50" relative="1" as="geometry">
            <mxPoint x="214.61000000000004" y="186.74999999999997" as="sourcePoint" />
            <mxPoint x="215.4" y="220.47" as="targetPoint" />
          </mxGeometry>
        </mxCell>
        <mxCell id="tonet2kMceCvSD0oCQCj-27" value="" style="endArrow=classic;html=1;rounded=0;entryX=0.5;entryY=0;entryDx=0;entryDy=0;exitX=0.341;exitY=1.065;exitDx=0;exitDy=0;exitPerimeter=0;shape=flexArrow;" parent="1" source="tonet2kMceCvSD0oCQCj-3" target="tonet2kMceCvSD0oCQCj-7" edge="1">
          <mxGeometry width="50" height="50" relative="1" as="geometry">
            <mxPoint x="260" y="250" as="sourcePoint" />
            <mxPoint x="310" y="200" as="targetPoint" />
          </mxGeometry>
        </mxCell>
        <mxCell id="tonet2kMceCvSD0oCQCj-28" value="" style="endArrow=classic;html=1;rounded=0;entryX=0.5;entryY=1;entryDx=0;entryDy=0;shape=flexArrow;exitX=0.155;exitY=0.007;exitDx=0;exitDy=0;exitPerimeter=0;" parent="1" target="tonet2kMceCvSD0oCQCj-12" edge="1">
          <mxGeometry width="50" height="50" relative="1" as="geometry">
            <mxPoint x="152.0999999999999" y="166.75" as="sourcePoint" />
            <mxPoint x="267" y="238.11" as="targetPoint" />
          </mxGeometry>
        </mxCell>
        <mxCell id="tonet2kMceCvSD0oCQCj-29" style="edgeStyle=orthogonalEdgeStyle;rounded=0;orthogonalLoop=1;jettySize=auto;html=1;entryX=0.309;entryY=-0.032;entryDx=0;entryDy=0;entryPerimeter=0;shape=flexArrow;" parent="1" edge="1">
          <mxGeometry relative="1" as="geometry">
            <mxPoint x="254.95" y="140.64000000000001" as="sourcePoint" />
            <mxPoint x="254.72999999999996" y="166.75000000000003" as="targetPoint" />
          </mxGeometry>
        </mxCell>
        <mxCell id="tonet2kMceCvSD0oCQCj-30" value="" style="endArrow=classic;html=1;rounded=0;entryX=0.5;entryY=1;entryDx=0;entryDy=0;strokeWidth=5;" parent="1" target="tonet2kMceCvSD0oCQCj-17" edge="1">
          <mxGeometry width="50" height="50" relative="1" as="geometry">
            <mxPoint x="205" y="160.14" as="sourcePoint" />
            <mxPoint x="287" y="170" as="targetPoint" />
          </mxGeometry>
        </mxCell>
        <mxCell id="35LEq4aCd4Z8V4UaqVQG-1" value="regs" style="rounded=0;whiteSpace=wrap;html=1;" parent="1" vertex="1">
          <mxGeometry x="335" y="218.25" width="50" height="20" as="geometry" />
        </mxCell>
        <mxCell id="35LEq4aCd4Z8V4UaqVQG-2" value="" style="endArrow=classic;html=1;rounded=0;entryX=0.5;entryY=0;entryDx=0;entryDy=0;exitX=0.155;exitY=0.929;exitDx=0;exitDy=0;exitPerimeter=0;strokeWidth=5;" parent="1" edge="1">
          <mxGeometry width="50" height="50" relative="1" as="geometry">
            <mxPoint x="359.8" y="186.75" as="sourcePoint" />
            <mxPoint x="359.8" y="220.75" as="targetPoint" />
          </mxGeometry>
        </mxCell>
        <mxCell id="35LEq4aCd4Z8V4UaqVQG-3" value="" style="endArrow=none;html=1;rounded=0;exitX=0.25;exitY=1;exitDx=0;exitDy=0;" parent="1" source="tonet2kMceCvSD0oCQCj-11" edge="1">
          <mxGeometry width="50" height="50" relative="1" as="geometry">
            <mxPoint x="390" y="280" as="sourcePoint" />
            <mxPoint x="208" y="400" as="targetPoint" />
          </mxGeometry>
        </mxCell>
        <mxCell id="35LEq4aCd4Z8V4UaqVQG-5" value="" style="endArrow=none;html=1;rounded=0;exitX=0.75;exitY=1;exitDx=0;exitDy=0;" parent="1" source="tonet2kMceCvSD0oCQCj-4" edge="1">
          <mxGeometry width="50" height="50" relative="1" as="geometry">
            <mxPoint x="390" y="280" as="sourcePoint" />
            <mxPoint x="544" y="400" as="targetPoint" />
          </mxGeometry>
        </mxCell>
        <mxCell id="35LEq4aCd4Z8V4UaqVQG-6" value="irq" style="endArrow=none;html=1;rounded=0;" parent="1" edge="1">
          <mxGeometry x="-0.2157" y="-20" width="50" height="50" relative="1" as="geometry">
            <mxPoint x="550" y="400" as="sourcePoint" />
            <mxPoint x="40" y="400" as="targetPoint" />
            <mxPoint as="offset" />
          </mxGeometry>
        </mxCell>
        <mxCell id="35LEq4aCd4Z8V4UaqVQG-9" value="" style="endArrow=classic;html=1;rounded=0;entryX=0.148;entryY=0.985;entryDx=0;entryDy=0;entryPerimeter=0;" parent="1" target="tonet2kMceCvSD0oCQCj-1" edge="1">
          <mxGeometry width="50" height="50" relative="1" as="geometry">
            <mxPoint x="43" y="400" as="sourcePoint" />
            <mxPoint x="450" y="240" as="targetPoint" />
          </mxGeometry>
        </mxCell>
        <mxCell id="35LEq4aCd4Z8V4UaqVQG-10" value="" style="endArrow=classic;html=1;rounded=0;entryX=0.5;entryY=1;entryDx=0;entryDy=0;exitX=0.46;exitY=-0.019;exitDx=0;exitDy=0;exitPerimeter=0;strokeWidth=5;" parent="1" edge="1">
          <mxGeometry width="50" height="50" relative="1" as="geometry">
            <mxPoint x="518.89" y="166.75" as="sourcePoint" />
            <mxPoint x="518.89" y="140.75" as="targetPoint" />
          </mxGeometry>
        </mxCell>
        <mxCell id="35LEq4aCd4Z8V4UaqVQG-13" value="" style="endArrow=classic;html=1;rounded=0;entryX=0.5;entryY=0;entryDx=0;entryDy=0;exitX=0.155;exitY=0.929;exitDx=0;exitDy=0;exitPerimeter=0;strokeWidth=5;" parent="1" edge="1">
          <mxGeometry width="50" height="50" relative="1" as="geometry">
            <mxPoint x="538.73" y="184.25" as="sourcePoint" />
            <mxPoint x="538.73" y="218.25" as="targetPoint" />
          </mxGeometry>
        </mxCell>
        <mxCell id="35LEq4aCd4Z8V4UaqVQG-15" value="Normalizer&lt;br&gt;&lt;br&gt;&lt;br&gt;&lt;br&gt;&lt;div&gt;&lt;br&gt;&lt;/div&gt;&lt;div&gt;&lt;br&gt;&lt;/div&gt;&lt;div&gt;&lt;br&gt;&lt;/div&gt;&lt;div&gt;&lt;br&gt;&lt;/div&gt;" style="rounded=0;whiteSpace=wrap;html=1;" parent="1" vertex="1">
          <mxGeometry x="289" y="20" width="165" height="119.86" as="geometry" />
        </mxCell>
        <mxCell id="35LEq4aCd4Z8V4UaqVQG-16" value="DMA" style="rounded=0;whiteSpace=wrap;html=1;" parent="1" vertex="1">
          <mxGeometry x="397.63" y="120.00000000000001" width="50" height="20" as="geometry" />
        </mxCell>
        <mxCell id="35LEq4aCd4Z8V4UaqVQG-46" style="edgeStyle=orthogonalEdgeStyle;rounded=0;orthogonalLoop=1;jettySize=auto;html=1;exitX=0.5;exitY=0;exitDx=0;exitDy=0;entryX=0;entryY=0.25;entryDx=0;entryDy=0;" parent="1" source="35LEq4aCd4Z8V4UaqVQG-17" target="35LEq4aCd4Z8V4UaqVQG-44" edge="1">
          <mxGeometry relative="1" as="geometry">
            <Array as="points">
              <mxPoint x="320" y="120" />
              <mxPoint x="320" y="80" />
            </Array>
          </mxGeometry>
        </mxCell>
        <mxCell id="35LEq4aCd4Z8V4UaqVQG-17" value="DMA" style="rounded=0;whiteSpace=wrap;html=1;" parent="1" vertex="1">
          <mxGeometry x="301" y="119.86000000000001" width="50" height="20" as="geometry" />
        </mxCell>
        <mxCell id="35LEq4aCd4Z8V4UaqVQG-18" value="regs" style="rounded=0;whiteSpace=wrap;html=1;" parent="1" vertex="1">
          <mxGeometry x="347.63" y="119.86000000000001" width="50" height="20" as="geometry" />
        </mxCell>
        <mxCell id="35LEq4aCd4Z8V4UaqVQG-19" value="" style="endArrow=classic;html=1;rounded=0;entryX=0.5;entryY=1;entryDx=0;entryDy=0;shape=flexArrow;exitX=0.155;exitY=0.007;exitDx=0;exitDy=0;exitPerimeter=0;" parent="1" target="35LEq4aCd4Z8V4UaqVQG-17" edge="1">
          <mxGeometry width="50" height="50" relative="1" as="geometry">
            <mxPoint x="326.0999999999999" y="166.75" as="sourcePoint" />
            <mxPoint x="441" y="238.11" as="targetPoint" />
          </mxGeometry>
        </mxCell>
        <mxCell id="35LEq4aCd4Z8V4UaqVQG-20" style="edgeStyle=orthogonalEdgeStyle;rounded=0;orthogonalLoop=1;jettySize=auto;html=1;entryX=0.309;entryY=-0.032;entryDx=0;entryDy=0;entryPerimeter=0;shape=flexArrow;" parent="1" edge="1">
          <mxGeometry relative="1" as="geometry">
            <mxPoint x="422.58" y="140.64000000000001" as="sourcePoint" />
            <mxPoint x="422.35999999999996" y="166.75000000000003" as="targetPoint" />
          </mxGeometry>
        </mxCell>
        <mxCell id="35LEq4aCd4Z8V4UaqVQG-21" value="" style="endArrow=classic;html=1;rounded=0;entryX=0.5;entryY=1;entryDx=0;entryDy=0;strokeWidth=5;exitX=0.693;exitY=-0.052;exitDx=0;exitDy=0;exitPerimeter=0;" parent="1" target="35LEq4aCd4Z8V4UaqVQG-18" edge="1">
          <mxGeometry width="50" height="50" relative="1" as="geometry">
            <mxPoint x="372.34000000000003" y="165.56999999999994" as="sourcePoint" />
            <mxPoint x="447.63" y="169.72000000000003" as="targetPoint" />
            <Array as="points">
              <mxPoint x="372.63" y="149.86" />
            </Array>
          </mxGeometry>
        </mxCell>
        <mxCell id="35LEq4aCd4Z8V4UaqVQG-23" value="Hamming" style="rounded=0;whiteSpace=wrap;html=1;rotation=90;" parent="1" vertex="1">
          <mxGeometry x="135.25" y="60" width="54.75" height="16.5" as="geometry" />
        </mxCell>
        <mxCell id="35LEq4aCd4Z8V4UaqVQG-24" value="FFT" style="rounded=0;whiteSpace=wrap;html=1;rotation=90;" parent="1" vertex="1">
          <mxGeometry x="152.56" y="60" width="54.75" height="16.5" as="geometry" />
        </mxCell>
        <mxCell id="35LEq4aCd4Z8V4UaqVQG-26" value="Modulus" style="rounded=0;whiteSpace=wrap;html=1;rotation=90;" parent="1" vertex="1">
          <mxGeometry x="172.56" y="60" width="54.75" height="16.5" as="geometry" />
        </mxCell>
        <mxCell id="35LEq4aCd4Z8V4UaqVQG-29" value="Mel Scale" style="rounded=0;whiteSpace=wrap;html=1;rotation=90;" parent="1" vertex="1">
          <mxGeometry x="190.81" y="58.25" width="54.75" height="20" as="geometry" />
        </mxCell>
        <mxCell id="35LEq4aCd4Z8V4UaqVQG-39" style="edgeStyle=orthogonalEdgeStyle;rounded=0;orthogonalLoop=1;jettySize=auto;html=1;exitX=0.25;exitY=0;exitDx=0;exitDy=0;entryX=0.599;entryY=-0.01;entryDx=0;entryDy=0;entryPerimeter=0;" parent="1" source="35LEq4aCd4Z8V4UaqVQG-30" target="tonet2kMceCvSD0oCQCj-8" edge="1">
          <mxGeometry relative="1" as="geometry">
            <mxPoint x="260" y="100" as="targetPoint" />
            <Array as="points">
              <mxPoint x="260" y="61" />
              <mxPoint x="260" y="120" />
            </Array>
          </mxGeometry>
        </mxCell>
        <mxCell id="35LEq4aCd4Z8V4UaqVQG-30" value="Package" style="rounded=0;whiteSpace=wrap;html=1;rotation=90;" parent="1" vertex="1">
          <mxGeometry x="207.31" y="70" width="69" height="16.5" as="geometry" />
        </mxCell>
        <mxCell id="35LEq4aCd4Z8V4UaqVQG-34" value="&lt;font style=&quot;font-size: 10px;&quot;&gt;ZCR&lt;/font&gt;" style="rounded=0;whiteSpace=wrap;html=1;" parent="1" vertex="1">
          <mxGeometry x="159.87" y="100" width="67.44" height="10" as="geometry" />
        </mxCell>
        <mxCell id="35LEq4aCd4Z8V4UaqVQG-40" value="Max" style="rounded=0;whiteSpace=wrap;html=1;" parent="1" vertex="1">
          <mxGeometry x="301" y="38.25" width="70" height="21.75" as="geometry" />
        </mxCell>
        <mxCell id="35LEq4aCd4Z8V4UaqVQG-41" style="edgeStyle=orthogonalEdgeStyle;rounded=0;orthogonalLoop=1;jettySize=auto;html=1;exitX=0.25;exitY=0;exitDx=0;exitDy=0;entryX=0.187;entryY=0.954;entryDx=0;entryDy=0;entryPerimeter=0;" parent="1" source="35LEq4aCd4Z8V4UaqVQG-17" target="35LEq4aCd4Z8V4UaqVQG-40" edge="1">
          <mxGeometry relative="1" as="geometry" />
        </mxCell>
        <mxCell id="35LEq4aCd4Z8V4UaqVQG-42" value="Divide" style="rounded=0;whiteSpace=wrap;html=1;" parent="1" vertex="1">
          <mxGeometry x="335" y="95" width="40" height="20" as="geometry" />
        </mxCell>
        <mxCell id="35LEq4aCd4Z8V4UaqVQG-49" style="edgeStyle=orthogonalEdgeStyle;rounded=0;orthogonalLoop=1;jettySize=auto;html=1;exitX=1;exitY=0.5;exitDx=0;exitDy=0;entryX=0.5;entryY=0;entryDx=0;entryDy=0;" parent="1" source="35LEq4aCd4Z8V4UaqVQG-43" target="35LEq4aCd4Z8V4UaqVQG-16" edge="1">
          <mxGeometry relative="1" as="geometry" />
        </mxCell>
        <mxCell id="35LEq4aCd4Z8V4UaqVQG-43" value="Mul" style="rounded=0;whiteSpace=wrap;html=1;" parent="1" vertex="1">
          <mxGeometry x="375" y="95" width="40" height="20" as="geometry" />
        </mxCell>
        <mxCell id="35LEq4aCd4Z8V4UaqVQG-44" value="Divide" style="rounded=0;whiteSpace=wrap;html=1;" parent="1" vertex="1">
          <mxGeometry x="335" y="75" width="40" height="20" as="geometry" />
        </mxCell>
        <mxCell id="35LEq4aCd4Z8V4UaqVQG-50" style="edgeStyle=orthogonalEdgeStyle;rounded=0;orthogonalLoop=1;jettySize=auto;html=1;exitX=1;exitY=0.5;exitDx=0;exitDy=0;entryX=0.75;entryY=0;entryDx=0;entryDy=0;" parent="1" source="35LEq4aCd4Z8V4UaqVQG-45" target="35LEq4aCd4Z8V4UaqVQG-16" edge="1">
          <mxGeometry relative="1" as="geometry" />
        </mxCell>
        <mxCell id="35LEq4aCd4Z8V4UaqVQG-45" value="Mul" style="rounded=0;whiteSpace=wrap;html=1;" parent="1" vertex="1">
          <mxGeometry x="375" y="75" width="40" height="20" as="geometry" />
        </mxCell>
        <mxCell id="35LEq4aCd4Z8V4UaqVQG-47" value="" style="endArrow=classic;html=1;rounded=0;entryX=0;entryY=0.75;entryDx=0;entryDy=0;" parent="1" target="35LEq4aCd4Z8V4UaqVQG-42" edge="1">
          <mxGeometry width="50" height="50" relative="1" as="geometry">
            <mxPoint x="320" y="108.25" as="sourcePoint" />
            <mxPoint x="370" y="58.25" as="targetPoint" />
          </mxGeometry>
        </mxCell>
        <mxCell id="35LEq4aCd4Z8V4UaqVQG-51" value="Core1" style="rounded=0;whiteSpace=wrap;html=1;" parent="1" vertex="1">
          <mxGeometry x="514" y="248.13" width="46" height="20" as="geometry" />
        </mxCell>
        <mxCell id="35LEq4aCd4Z8V4UaqVQG-52" value="Core2" style="rounded=0;whiteSpace=wrap;html=1;" parent="1" vertex="1">
          <mxGeometry x="514" y="268.13" width="46" height="20" as="geometry" />
        </mxCell>
        <mxCell id="35LEq4aCd4Z8V4UaqVQG-53" value="Core3" style="rounded=0;whiteSpace=wrap;html=1;" parent="1" vertex="1">
          <mxGeometry x="514" y="288.13" width="46" height="20" as="geometry" />
        </mxCell>
        <mxCell id="35LEq4aCd4Z8V4UaqVQG-54" value="Core4" style="rounded=0;whiteSpace=wrap;html=1;" parent="1" vertex="1">
          <mxGeometry x="514" y="308.13" width="46" height="20" as="geometry" />
        </mxCell>
        <mxCell id="tonet2kMceCvSD0oCQCj-1" value="Nios IIe&lt;br&gt;&lt;br&gt;&lt;br&gt;&lt;br&gt;&lt;br&gt;&lt;div&gt;&lt;br&gt;&lt;/div&gt;&lt;div&gt;&lt;br&gt;&lt;/div&gt;&lt;div&gt;&lt;br&gt;&lt;/div&gt;&lt;div&gt;&lt;br&gt;&lt;/div&gt;" style="rounded=0;whiteSpace=wrap;html=1;fillColor=#6d8764;fontColor=#ffffff;strokeColor=#3A5431;" parent="1" vertex="1">
          <mxGeometry x="30" y="135.25" width="90" height="144.75" as="geometry" />
        </mxCell>
        <mxCell id="E3ScxHlMdfL-7eoT-iMu-1" value="&lt;font style=&quot;font-size: 7px;&quot;&gt;Skalowanie w osi czasu&lt;/font&gt;" style="rounded=0;whiteSpace=wrap;html=1;fillColor=#1ba1e2;fontColor=#ffffff;strokeColor=#006EAF;" parent="1" vertex="1">
          <mxGeometry x="40" y="160.13" width="70" height="29.87" as="geometry" />
        </mxCell>
        <mxCell id="E3ScxHlMdfL-7eoT-iMu-2" value="&lt;font style=&quot;font-size: 7px;&quot;&gt;Wybranie głośnego fragmentu&lt;/font&gt;" style="rounded=0;whiteSpace=wrap;html=1;fillColor=#1ba1e2;fontColor=#ffffff;strokeColor=#006EAF;" parent="1" vertex="1">
          <mxGeometry x="40" y="193.38" width="70" height="36.62" as="geometry" />
        </mxCell>
        <mxCell id="E3ScxHlMdfL-7eoT-iMu-3" value="&lt;font style=&quot;font-size: 7px;&quot;&gt;Zbieranie danych do bufora kołowego&lt;/font&gt;" style="rounded=0;whiteSpace=wrap;html=1;fillColor=#1ba1e2;fontColor=#ffffff;strokeColor=#006EAF;" parent="1" vertex="1">
          <mxGeometry x="40" y="233.13" width="70" height="30" as="geometry" />
        </mxCell>
        <mxCell id="E3ScxHlMdfL-7eoT-iMu-4" style="edgeStyle=orthogonalEdgeStyle;rounded=0;orthogonalLoop=1;jettySize=auto;html=1;exitX=1;exitY=0.75;exitDx=0;exitDy=0;entryX=0.101;entryY=0.61;entryDx=0;entryDy=0;entryPerimeter=0;shape=flexArrow;startArrow=block;" parent="1" source="tonet2kMceCvSD0oCQCj-10" target="tonet2kMceCvSD0oCQCj-20" edge="1">
          <mxGeometry relative="1" as="geometry" />
        </mxCell>
      </root>
    </mxGraphModel>
  </diagram>
</mxfile>
